# xmcd CD database file
#
# Track frame offsets:
#	225
#	13572
#	25432
#	39442
#	52115
#	70351
#	81591
#	93438
#	107550
#	117187
#	126748
#	141345
#	155418
#	170263
#	181771
#	194020
#	207443
#	215434
#	232177
#	243564
#
# Disc length: 3376 seconds
#
# Revision: 0
# Processed by: cddbd v1.4PL0 Copyright (c) Steve Scherf et al.
# Submitted via: CDex 1.50beta9
#
DISCID=300d2d14
DTITLE=Frank Sinatra - Frank Sinatra 2/2
DYEAR=1998
DGENRE=Jazz
TTITLE0=I get a kick out of you
TTITLE1=Rewitched
TTITLE2=The Lady is a tramp
TTITLE3=You make me feel so young
TTITLE4=Night and day
TTITLE5=Dancing in the dark
TTITLE6=My funny Valentine
TTITLE7=Embraceable you
TTITLE8=At long last love
TTITLE9=I could have danced all night
TTITLE10=Stardust
TTITLE11=I'll be seeing you
TTITLE12=Tea for two
TTITLE13=Blue shoes
TTITLE14=On the road to Mandalay
TTITLE15=The moon was yellow
TTITLE16=Somebody loves me
TTITLE17=This love of mine
TTITLE18=When your love has gone
TTITLE19=All the way
EXTD=YEAR: 1998
EXTT0=
EXTT1=
EXTT2=
EXTT3=
EXTT4=
EXTT5=
EXTT6=
EXTT7=
EXTT8=
EXTT9=
EXTT10=
EXTT11=
EXTT12=
EXTT13=
EXTT14=
EXTT15=
EXTT16=
EXTT17=
EXTT18=
EXTT19=
PLAYORDER=
